<svg width="20" height="43" viewBox="0 0 20 43" fill="none" xmlns="http://www.w3.org/2000/svg">
<path d="M0.96125 43C0.427917 43 0.16125 42.7333 0.16125 42.2V36.184C0.16125 35.9067 0.171917 35.6827 0.19325 35.512C0.235917 35.3413 0.363917 35.2027 0.57725 35.096L8.96125 31.256V25.56L0.70525 20.44C0.342583 20.2267 0.16125 19.9067 0.16125 19.48V7.736C0.16125 7.39467 0.182583 7.14933 0.22525 7C0.267917 6.82933 0.427917 6.648 0.70525 6.456L9.12125 0.759998C9.33458 0.631997 9.52658 0.535997 9.69725 0.471996C9.88925 0.386664 10.1239 0.343998 10.4013 0.343998H19.0413C19.5746 0.343998 19.8413 0.610664 19.8413 1.144V6.584C19.8413 7.05333 19.6813 7.37333 19.3613 7.544L10.9773 11V16.92L19.3613 21.72C19.6813 21.8693 19.8413 22.2107 19.8413 22.744V36.664C19.8413 36.8347 19.8093 37.016 19.7453 37.208C19.7026 37.4 19.5959 37.5387 19.4253 37.624L9.37725 42.616C9.24925 42.68 9.08925 42.7653 8.89725 42.872C8.72658 42.9573 8.55592 43 8.38525 43H0.96125Z" fill="black"/>
</svg>
