<svg width="164" height="43" viewBox="0 0 164 43" fill="none" xmlns="http://www.w3.org/2000/svg">
<path d="M1.305 43C0.771667 43 0.505 42.7333 0.505 42.2V36.184C0.505 35.9067 0.515667 35.6827 0.537 35.512C0.579667 35.3413 0.707667 35.2027 0.921 35.096L9.305 31.256V25.56L1.049 20.44C0.686333 20.2267 0.505 19.9067 0.505 19.48V7.736C0.505 7.39467 0.526333 7.14933 0.569 7C0.611667 6.82933 0.771667 6.648 1.049 6.456L9.465 0.759998C9.67833 0.631997 9.87033 0.535997 10.041 0.471996C10.233 0.386664 10.4677 0.343998 10.745 0.343998H19.385C19.9183 0.343998 20.185 0.610664 20.185 1.144V6.584C20.185 7.05333 20.025 7.37333 19.705 7.544L11.321 11V16.92L19.705 21.72C20.025 21.8693 20.185 22.2107 20.185 22.744V36.664C20.185 36.8347 20.153 37.016 20.089 37.208C20.0463 37.4 19.9397 37.5387 19.769 37.624L9.721 42.616C9.593 42.68 9.433 42.7653 9.241 42.872C9.07033 42.9573 8.89967 43 8.729 43H1.305ZM27.7025 43C27.1692 43 26.9025 42.7333 26.9025 42.2V1.144C26.9025 0.610664 27.1692 0.343998 27.7025 0.343998H45.8785C46.3905 0.343998 46.8172 0.514665 47.1585 0.855999L53.5585 7.256C53.9212 7.61867 54.1025 8.04533 54.1025 8.536V42.2C54.1025 42.7333 53.8358 43 53.3025 43H44.2465C43.7132 43 43.4465 42.7333 43.4465 42.2V8.856H37.5585V42.2C37.5585 42.7333 37.2918 43 36.7585 43H27.7025ZM62.5775 43C62.0442 43 61.7775 42.7333 61.7775 42.2V1.144C61.7775 0.610664 62.0442 0.343998 62.5775 0.343998H71.6335C72.1668 0.343998 72.4335 0.610664 72.4335 1.144V42.2C72.4335 42.7333 72.1668 43 71.6335 43H62.5775ZM80.89 43C80.3567 43 80.09 42.7333 80.09 42.2V1.144C80.09 0.610664 80.3567 0.343998 80.89 0.343998H98.586C99.098 0.343998 99.5247 0.514665 99.866 0.855999L106.266 7.256C106.629 7.61867 106.81 8.04533 106.81 8.536V19.576C106.81 20.088 106.629 20.5147 106.266 20.856L99.866 27.256C99.5247 27.6187 99.098 27.8 98.586 27.8H90.746V42.2C90.746 42.7333 90.4793 43 89.946 43H80.89ZM93.146 19.096C94.9167 19.096 96.122 18.744 96.762 18.04C97.4233 17.336 97.754 16.0027 97.754 14.04C97.754 12.0773 97.4233 10.744 96.762 10.04C96.122 9.336 94.9167 8.984 93.146 8.984C91.3967 8.984 90.1913 9.336 89.53 10.04C88.89 10.744 88.57 12.0773 88.57 14.04C88.57 16.0027 88.89 17.336 89.53 18.04C90.1913 18.744 91.3967 19.096 93.146 19.096ZM112.765 43C112.232 43 111.965 42.7333 111.965 42.2V1.144C111.965 0.610664 112.232 0.343998 112.765 0.343998H121.821C122.354 0.343998 122.621 0.610664 122.621 1.144V34.456H130.685C131.218 34.456 131.485 34.7227 131.485 35.256V42.2C131.485 42.7333 131.218 43 130.685 43H112.765ZM145.006 43C144.473 43 144.206 42.7333 144.206 42.2V29.72L135.63 21.176C135.481 21.0053 135.385 20.856 135.342 20.728C135.321 20.5787 135.31 20.408 135.31 20.216V1.144C135.31 0.610664 135.577 0.343998 136.11 0.343998H145.166C145.699 0.343998 145.966 0.610664 145.966 1.144V20.504H153.134V1.144C153.134 0.610664 153.401 0.343998 153.934 0.343998H162.99C163.523 0.343998 163.79 0.610664 163.79 1.144V20.216C163.79 20.408 163.779 20.5787 163.758 20.728C163.737 20.856 163.641 21.0053 163.47 21.176L154.926 29.72V42.2C154.926 42.7333 154.659 43 154.126 43H145.006Z" fill="black"/>
</svg>
